{"title":"The Kettering Incident - S01E08 - The Homecoming","uid":15613018,"size":450778821,"categoryP":"video","categoryS":"tv_shows","magnet":"?xt=urn:btih:4f4db031137cfd74ca1b11b14790d7fc712c3201&amp;dn=The+Kettering+Incident+-+S01E08+-+The+Homecoming&amp;tr=udp%3A%2F%2Ftracker.leechers-paradise.org%3A6969&amp;tr=udp%3A%2F%2Fzer0day.ch%3A1337&amp;tr=udp%3A%2F%2Fopen.demonii.com%3A1337&amp;tr=udp%3A%2F%2Ftracker.coppersurfer.tk%3A6969&amp;tr=udp%3A%2F%2Fexodus.desync.com%3A6969","seeders":16,"leechers":3,"uploader":"Bullrout","files":1,"time":1471802415,"description":"The Kettering Incident - S01E08 - The Homecoming\r\n\r\nAnna is convinced she knows what happened to Gillian 15 years ago. The town farewells a local while another life hangs in the balance. Anna faces the shocking truth of what happened the night of The Kettering Incident.\r\n\r\nComplete name                            : The Kettering Incident - S01E08 - The Homecoming.mp4\r\nFormat                                   : MPEG-4\r\nFormat profile                           : Base Media / Version 2\r\nCodec ID                                 : mp42 (mp42/isom/avc1)\r\nFile size                                : 430 MiB\r\nDuration                                 : 54mn 1s\r\nOverall bit rate mode                    : Variable\r\nOverall bit rate                         : 1 112 Kbps\r\n\r\n\r\nVideo\r\nID                                       : 2\r\nFormat                                   : AVC\r\nFormat/Info                              : Advanced Video Codec\r\nFormat profile                           :   \r\nFormat settings, CABAC                   : Yes\r\nFormat settings, ReFrames                : 3 frames\r\nCodec ID                                 : avc1\r\nCodec ID/Info                            : Advanced Video Coding\r\nDuration                                 : 54mn 1s\r\nBit rate mode                            : Variable\r\nBit rate                                 : 981 Kbps\r\nMaximum bit rate                         : 1 000 Kbps\r\nWidth                                    : 720 pixels\r\nHeight                                   : 388 pixels\r\nDisplay aspect ratio                     : 1.85:1\r\nFrame rate mode                          : Constant\r\nFrame rate                               : 25.000 fps\r\nStandard                                 : PAL\r\nColor space                              : YUV\r\nChroma subsampling                       : 4:2:0\r\nBit depth                                : 8 bits\r\nScan type                                : Progressive\r\nBits/(Pixel*Frame)                       : 0.140\r\nStream size                              : 379 MiB (88%)\r\nWriting library                          : x264 core 112\r\nColor range                              : Limited\r\nColor primaries                          : BT.601 PAL\r\nTransfer characteristics                 : BT.470 System B, BT.470 System G\r\nMatrix coefficients                      : BT.601\r\n\r\nAudio\r\nID                                       : 1\r\nFormat                                   : AAC\r\nFormat/Info                              : Advanced Audio Codec\r\nFormat profile                           : LC\r\nCodec ID                                 : 40\r\nDuration                                 : 54mn 1s\r\nBit rate mode                            : Variable\r\nBit rate                                 : 128 Kbps\r\nMaximum bit rate                         : 576 Kbps\r\nChannel(s)                               : 2 channels\r\nChannel positions                        : Front: L R\r\nSampling rate                            : 48.0 KHz\r\nFrame rate                               : 46.875 fps (1024 spf)\r\nCompression mode                         : Lossy\r\nStream size                              : 49.5 MiB (12%)","torrent":{"xt":"urn:btih:4f4db031137cfd74ca1b11b14790d7fc712c3201","amp;dn":"The+Kettering+Incident+-+S01E08+-+The+Homecoming","amp;tr":["udp%3A%2F%2Ftracker.leechers-paradise.org%3A6969","udp%3A%2F%2Fzer0day.ch%3A1337","udp%3A%2F%2Fopen.demonii.com%3A1337","udp%3A%2F%2Ftracker.coppersurfer.tk%3A6969","udp%3A%2F%2Fexodus.desync.com%3A6969"],"infoHash":"4f4db031137cfd74ca1b11b14790d7fc712c3201","infoHashBuffer":{"type":"Buffer","data":[79,77,176,49,19,124,253,116,202,27,17,177,71,144,215,252,113,44,50,1]},"announce":[],"urlList":[]}}